<?xml version="1.0" standalone="no"?>
<!DOCTYPE svg PUBLIC "-//W3C//DTD SVG 20010904//EN"
 "http://www.w3.org/TR/2001/REC-SVG-20010904/DTD/svg10.dtd">
<svg version="1.0" xmlns="http://www.w3.org/2000/svg"
 width="96.000000pt" height="96.000000pt" viewBox="0 0 96.000000 96.000000"
 preserveAspectRatio="xMidYMid meet">

<g transform="translate(0.000000,96.000000) scale(0.100000,-0.100000)"
fill="#000000" stroke="none">
<path d="M193 910 c-12 -5 -29 -21 -39 -35 -16 -25 -16 -72 1 -155 4 -21 -2
-30 -34 -52 -22 -15 -49 -45 -61 -67 -38 -75 -21 -191 37 -243 10 -9 45 -30
78 -45 54 -25 71 -28 165 -28 108 0 110 0 233 63 4 2 7 -62 7 -142 l0 -145 33
-6 c40 -7 66 -9 95 -7 21 2 22 6 22 82 l0 80 30 0 30 0 0 -94 0 -94 31 -6 c17
-3 49 -6 70 -6 l39 0 0 146 0 145 -56 67 c-31 36 -61 74 -67 84 -22 34 -78 24
-140 -27 -31 -25 -58 -45 -60 -45 -3 0 4 19 15 42 42 87 9 199 -74 250 -23 14
-36 28 -32 37 15 43 24 107 18 136 -12 64 -78 93 -126 55 -27 -21 -58 -99 -58
-147 0 -37 -19 -26 -25 15 -11 67 -25 108 -42 125 -24 21 -63 28 -90 17z m76
-51 c10 -16 22 -57 25 -90 l7 -59 38 0 38 0 6 60 c7 61 20 99 41 112 23 16 56
7 73 -18 17 -27 17 -29 -14 -160 -4 -17 5 -27 41 -48 110 -64 116 -223 11
-294 -86 -60 -257 -68 -361 -17 -75 37 -104 81 -104 160 0 70 23 117 71 143
64 36 63 32 45 92 -20 69 -20 109 1 132 25 28 60 23 82 -13z"/>
<path d="M212 578 c-17 -17 -15 -63 3 -78 21 -17 43 -6 51 26 11 45 -25 81
-54 52z"/>
<path d="M422 578 c-17 -17 -15 -63 4 -79 22 -18 48 0 52 35 6 45 -29 71 -56
44z"/>
</g>
</svg>
