<?xml version="1.0" standalone="no"?>
<!DOCTYPE svg PUBLIC "-//W3C//DTD SVG 20010904//EN"
 "http://www.w3.org/TR/2001/REC-SVG-20010904/DTD/svg10.dtd">
<svg version="1.0" xmlns="http://www.w3.org/2000/svg"
 width="96.000000pt" height="96.000000pt" viewBox="0 0 96.000000 96.000000"
 preserveAspectRatio="xMidYMid meet">

<g transform="translate(0.000000,96.000000) scale(0.100000,-0.100000)"
fill="#000000" stroke="none">
<path d="M405 952 c-6 -5 -30 -14 -55 -21 -152 -44 -277 -169 -321 -321 -7
-25 -16 -49 -21 -54 -11 -13 -11 -139 0 -152 5 -5 14 -29 21 -54 44 -152 169
-277 321 -321 25 -7 49 -16 54 -21 13 -11 139 -11 152 0 5 5 29 14 54 21 77
22 142 61 201 120 59 59 98 124 120 201 7 25 16 49 21 55 11 12 11 138 0 150
-5 6 -14 30 -21 55 -44 152 -169 277 -321 321 -25 7 -49 16 -54 21 -6 4 -40 8
-76 8 -36 0 -70 -4 -75 -8z m17 -238 c34 -19 71 -43 81 -51 25 -23 22 -78 -5
-97 -37 -26 -58 -21 -58 14 0 24 -8 35 -40 55 -49 31 -77 32 -121 2 -32 -22
-34 -26 -34 -81 l0 -58 47 -25 48 -25 140 77 140 77 88 -49 87 -48 3 -94 c2
-62 -1 -98 -9 -108 -20 -23 -146 -93 -169 -93 -22 0 -92 36 -147 77 -41 30
-46 83 -11 107 36 26 56 20 60 -16 2 -24 12 -38 37 -55 44 -30 72 -29 121 2
38 24 40 28 40 73 0 26 -4 52 -8 58 -13 21 -90 54 -109 47 -9 -4 -67 -35 -128
-70 -60 -35 -121 -63 -135 -63 -14 0 -59 19 -100 43 l-75 43 -3 95 c-2 81 0
98 15 111 34 30 138 87 160 88 11 0 50 -16 85 -36z"/>
</g>
</svg>
