<?xml version="1.0" standalone="no"?>
<!DOCTYPE svg PUBLIC "-//W3C//DTD SVG 20010904//EN"
 "http://www.w3.org/TR/2001/REC-SVG-20010904/DTD/svg10.dtd">
<svg version="1.0" xmlns="http://www.w3.org/2000/svg"
 width="96.000000pt" height="96.000000pt" viewBox="0 0 96.000000 96.000000"
 preserveAspectRatio="xMidYMid meet">

<g transform="translate(0.000000,96.000000) scale(0.100000,-0.100000)"
fill="#000000" stroke="none">
<path d="M664 453 c-16 -16 -46 -41 -66 -58 l-37 -30 -5 -133 c-5 -150 -3
-155 64 -166 66 -10 80 3 80 78 0 45 4 65 14 69 25 10 36 -16 36 -90 l0 -73
36 -15 c48 -20 81 -19 92 3 5 9 13 71 17 138 l7 120 -40 50 c-54 68 -128 134
-150 134 -11 0 -32 -12 -48 -27z"/>
</g>
</svg>
