<?xml version="1.0" standalone="no"?>
<!DOCTYPE svg PUBLIC "-//W3C//DTD SVG 20010904//EN"
 "http://www.w3.org/TR/2001/REC-SVG-20010904/DTD/svg10.dtd">
<svg version="1.0" xmlns="http://www.w3.org/2000/svg"
 width="96.000000pt" height="96.000000pt" viewBox="0 0 96.000000 96.000000"
 preserveAspectRatio="xMidYMid meet">

<g transform="translate(0.000000,96.000000) scale(0.100000,-0.100000)"
fill="#000000" stroke="none">
<path d="M177 683 l-177 -177 0 -50 c0 -28 9 -77 20 -109 23 -68 71 -158 84
-154 8 3 259 658 253 663 -1 2 -82 -76 -180 -173z"/>
<path d="M704 630 c-76 -77 -140 -144 -142 -148 -1 -4 63 -72 143 -152 140
-139 147 -144 161 -125 25 33 63 111 76 157 16 61 15 183 -3 245 -15 50 -77
163 -90 163 -3 0 -69 -63 -145 -140z"/>
<path d="M327 262 c-167 -167 -163 -154 -60 -206 111 -55 225 -68 329 -37 79
24 174 75 174 94 0 11 -280 297 -291 297 -2 0 -71 -67 -152 -148z"/>
</g>
</svg>
